<svg width="1483" height="271" viewBox="0 0 1483 271" fill="none" xmlns="http://www.w3.org/2000/svg">
<path d="M0.400002 266V4.99999H101.92C147.64 4.99999 196.96 19.4 196.96 73.04C196.96 97.52 180.76 119.48 167.44 128.12C187.6 137.84 206.32 152.96 206.32 188.96C206.32 245.12 159.88 266 106.24 266H0.400002ZM51.88 151.52V225.68H108.76C139 225.68 153.76 213.08 153.76 188.96C153.76 164.48 138.64 151.52 106.6 151.52H51.88ZM51.88 45.32V112.64H105.16C129.64 112.64 144.04 101.12 144.04 78.08C144.04 57.56 129.28 45.32 105.16 45.32H51.88ZM397.503 266L345.663 163.76H333.423H290.943V266H239.463V4.99999H325.143C411.183 4.99999 443.943 29.48 443.943 84.2C443.943 114.44 429.543 138.92 396.783 152.96L454.743 266H397.503ZM330.903 45.32H290.943V123.8H333.423C373.743 123.8 391.023 110.48 391.023 84.56C391.023 54.32 365.823 45.32 330.903 45.32ZM478.081 4.99999H529.561V155.84C529.561 201.92 538.921 229.64 586.441 229.64C633.961 229.64 642.601 201.92 642.601 155.84V4.99999H694.081V155.48C694.081 241.52 662.761 270.68 586.441 270.68C510.121 270.68 478.081 241.52 478.081 155.48V4.99999ZM956.883 266H889.923L785.523 66.92V266H736.923V4.99999H803.883L908.283 204.08V4.99999H956.883V266ZM1180.88 180.32H1229.84C1223 233.24 1179.08 270.68 1116.8 270.68C1039.04 270.68 994.759 217.76 994.759 134.24C994.759 51.8 1042.28 0.319987 1118.24 0.319987C1179.44 0.319987 1221.2 35.24 1229.84 89.6H1180.88C1171.16 53.24 1146.68 41.36 1117.88 41.36C1078.64 41.36 1048.04 73.76 1048.04 134.24C1048.04 196.52 1078.64 229.64 1116.08 229.64C1147.04 229.64 1172.24 215.96 1180.88 180.32ZM1430.99 4.99999H1482.47V266H1430.99V153.32H1313.99V266H1262.51V4.99999H1313.99V111.56H1430.99V4.99999Z" fill="#C4C4C3" fill-opacity="0.16"/>
</svg>
