<svg width="1508" height="271" viewBox="0 0 1508 271" fill="none" xmlns="http://www.w3.org/2000/svg">
<path d="M0.400002 4.99999H89.68C142.96 4.99999 204.52 12.56 204.52 91.4C204.52 158 151.6 174.2 91.12 174.2H51.88V266H0.400002V4.99999ZM90.76 45.32H51.88V134.24H94.36C126.04 134.24 151.6 126.32 151.6 91.76C151.6 48.92 118.48 45.32 90.76 45.32ZM230.322 266V4.99999H420.402V46.76H281.802V111.56H412.842V153.32H281.802V224.24H420.402V266H230.322ZM511.189 266V46.76H430.909V4.99999H643.309V46.76H562.669V266H511.189ZM719.849 4.99999V266H668.369V4.99999H719.849ZM766.806 266V4.99999H868.326C914.046 4.99999 963.366 19.4 963.366 73.04C963.366 97.52 947.166 119.48 933.846 128.12C954.006 137.84 972.726 152.96 972.726 188.96C972.726 245.12 926.286 266 872.646 266H766.806ZM818.286 151.52V225.68H875.166C905.406 225.68 920.166 213.08 920.166 188.96C920.166 164.48 905.046 151.52 873.006 151.52H818.286ZM818.286 45.32V112.64H871.566C896.046 112.64 910.446 101.12 910.446 78.08C910.446 57.56 895.686 45.32 871.566 45.32H818.286ZM1048.71 135.32C1048.71 196.88 1082.55 229.64 1123.23 229.64C1163.91 229.64 1197.75 196.88 1197.75 135.32C1197.75 74.12 1163.91 41.36 1123.23 41.36C1082.55 41.36 1048.71 74.12 1048.71 135.32ZM1251.03 135.32C1251.03 216.32 1200.99 270.68 1123.23 270.68C1045.47 270.68 995.429 216.32 995.429 135.32C995.429 54.32 1045.47 0.319987 1123.23 0.319987C1200.99 0.319987 1251.03 54.32 1251.03 135.32ZM1507.43 266H1440.47L1336.07 66.92V266H1287.47V4.99999H1354.43L1458.83 204.08V4.99999H1507.43V266Z" fill="#F5F5F5"/>
</svg>
