<svg width="1569" height="271" viewBox="0 0 1569 271" fill="none" xmlns="http://www.w3.org/2000/svg">
<path d="M128.2 0.319987C189.76 0.319987 230.8 35.96 239.44 84.2H190.48C182.2 55.4 157 41.36 127.84 41.36C84.28 41.36 53.68 71.96 53.68 134.24C53.68 196.52 82.84 229.64 127.48 229.64C155.2 229.64 192.64 215.6 192.64 173.84V169.52H127.48V127.4H240.16V266H199.48L198.04 235.4C183.28 257 156.64 270.68 119.56 270.68C46.12 270.68 0.400001 217.76 0.400001 134.24C0.400001 53.24 48.28 0.319987 128.2 0.319987ZM281.065 4.99999H332.545V155.84C332.545 201.92 341.905 229.64 389.425 229.64C436.945 229.64 445.585 201.92 445.585 155.84V4.99999H497.065V155.48C497.065 241.52 465.745 270.68 389.425 270.68C313.105 270.68 281.065 241.52 281.065 155.48V4.99999ZM697.948 266L646.108 163.76H633.868H591.388V266H539.908V4.99999H625.588C711.628 4.99999 744.388 29.48 744.388 84.2C744.388 114.44 729.988 138.92 697.228 152.96L755.188 266H697.948ZM631.348 45.32H591.388V123.8H633.868C674.188 123.8 691.468 110.48 691.468 84.56C691.468 54.32 666.268 45.32 631.348 45.32ZM946.981 266H895.861L831.421 69.8V266H783.541V4.99999H858.421L921.781 208.4L983.341 4.99999H1058.94V266H1011.06V69.8L946.981 266ZM1078.66 266L1175.86 4.99999H1227.7L1325.26 266H1269.46L1251.1 213.08H1149.58L1131.22 266H1078.66ZM1200.34 68L1164.34 170.96H1236.34L1200.34 68ZM1568.46 266H1501.5L1397.1 66.92V266H1348.5V4.99999H1415.46L1519.86 204.08V4.99999H1568.46V266Z" fill="#F5F5F5"/>
</svg>
