<svg width="133" height="21" viewBox="0 0 133 21" fill="none" xmlns="http://www.w3.org/2000/svg">
<mask id="mask0_3330_454" style="mask-type:luminance" maskUnits="userSpaceOnUse" x="0" y="0" width="133" height="21">
<path d="M133 0H0V20.3714H133V0Z" fill="white"/>
</mask>
<g mask="url(#mask0_3330_454)">
<path d="M124.125 10.413C124.125 9.58374 125.27 8.914 126.75 8.914C128.231 8.914 129.887 9.65549 130.952 10.8435L132.889 8.48346C131.04 6.85693 129.175 6.01177 126.838 6.01177C123.925 6.01177 120.916 7.3433 120.916 10.413C120.916 14.1842 124.173 14.4553 126.838 14.6706C128.327 14.7822 129.647 14.8859 129.647 15.8586C129.647 16.9031 128.143 17.3895 126.822 17.3895C125.286 17.3895 123.613 16.7436 122.404 15.2766L120.339 17.4612C121.988 19.4625 124.381 20.3475 126.718 20.3475C129.655 20.3475 132.857 18.9602 132.857 15.7789C132.857 12.191 129.559 11.8481 127.022 11.593C125.43 11.4335 124.125 11.29 124.125 10.405V10.413ZM109.399 11.298C109.927 9.98241 111.063 9.20104 112.752 9.20104C114.441 9.20104 115.449 10.0143 115.89 11.298H109.407H109.399ZM112.896 6.01177C108.895 6.01177 105.669 9.11332 105.669 13.2115C105.669 17.0546 108.51 20.3714 112.712 20.3714C115.249 20.3714 117.298 19.1595 118.747 17.0865L116.538 15.2287C115.761 16.4167 114.345 17.1264 112.664 17.1264C110.983 17.1264 109.167 15.8427 109.022 13.969H119.475V12.8527C119.475 8.89805 116.778 6.01177 112.904 6.01177H112.896ZM100.851 19.8691H104.061V6.49814H100.851V19.8691ZM102.444 0C101.139 0 100.035 1.08435 100.035 2.43979C100.035 3.79523 101.107 4.76796 102.5 4.76796C103.893 4.76796 104.853 3.81118 104.853 2.4956C104.853 1.18003 103.764 0.00797316 102.444 0.00797316V0ZM56.04 5.98783C54.5354 5.98783 53.1748 6.44231 52.0222 7.21572V0.143517H48.8129V13.1876C48.8129 17.1583 52.0544 20.3475 56.0239 20.3475C59.9937 20.3475 63.267 17.1742 63.267 13.1478C63.267 9.12131 60.0577 5.98783 56.04 5.98783ZM39.3929 6.20313C35.8233 6.56192 32.9099 9.63158 32.9099 13.2753C32.9099 17.1343 36.2236 20.3635 40.097 20.3635C43.9707 20.3635 47.2843 17.1343 47.2843 13.2753C47.2843 11.6329 46.6839 10.1179 45.7236 8.92994L38.6324 0.159463H34.4867L39.3929 6.20313ZM14.5822 14.1045L11.645 6.49015H9.39601L6.44275 14.1045L3.48948 6.49015H0L5.1622 19.8771H7.41116L10.5085 11.9039L13.6218 19.8771H15.8708L21.017 6.49015H17.5355L14.5822 14.1045ZM71.9587 6.01177C67.957 6.01177 64.7155 9.11332 64.7155 13.0281C64.7155 16.943 67.5567 20.3714 71.7828 20.3714C74.3199 20.3714 76.3685 19.1595 77.8173 17.0865L75.3202 15.0693C74.5919 16.3689 73.1992 17.1264 71.8068 17.1264C69.998 17.1264 68.2211 15.8427 68.0771 13.969H78.5617V12.9962C78.5617 8.89805 75.8484 6.01177 71.9669 6.01177H71.9587ZM83.4197 9.55184V6.50609H80.2103V19.8771H83.4197V14.2321C83.4197 11.4893 86.3728 9.81495 89.2862 9.81495V6.51408H88.9581C86.4929 6.51408 84.7002 7.41504 83.4197 9.55983V9.55184ZM93.5998 9.55184V6.50609H90.3905V19.8771H93.5998V14.2321C93.5998 11.4893 96.5533 9.81495 99.4663 9.81495V6.51408H99.1383C96.6733 6.51408 94.8807 7.41504 93.5998 9.55983V9.55184ZM28.052 19.8691H31.2614V0.159463H28.052V19.8612V19.8691ZM40.113 17.1662C37.9041 17.1662 36.1114 15.3962 36.1114 13.1956C36.1114 10.995 37.904 9.209 40.097 9.209C42.2902 9.209 44.139 10.9791 44.139 13.1956C44.139 15.4121 42.3302 17.1662 40.1212 17.1662H40.113ZM56.016 17.1662C53.8392 17.1662 52.0143 15.436 52.0143 13.1796C52.0143 10.9232 53.7348 9.209 56.0321 9.209C58.329 9.209 60.0495 10.995 60.0495 13.1796C60.0495 15.3643 58.2168 17.1662 56.0078 17.1662H56.016ZM22.5056 19.8691H25.715V6.49814H22.5056V19.8691ZM24.0743 0C22.7697 0 21.6813 1.08435 21.6813 2.45573C21.6813 3.82712 22.8258 4.78391 24.0743 4.78391C25.4669 4.78391 26.5233 3.6278 26.5233 2.38398C26.5233 1.14016 25.4188 0 24.0743 0ZM68.4452 11.298C68.9895 9.98241 70.1099 9.20104 71.7746 9.20104C73.4393 9.20104 74.5279 10.0143 74.96 11.298H68.4373H68.4452Z" fill="white"/>
</g>
</svg>
