<svg width="71" height="16" viewBox="0 0 71 16" fill="none" xmlns="http://www.w3.org/2000/svg">
<path d="M6.97358 0.0334044C3.53671 0.341132 0.691381 2.96866 0.0939212 6.39509C-0.0303031 7.07565 -0.0303031 8.37757 0.0880057 9.05813C0.578987 11.8454 2.66122 14.2244 5.36458 15.0825C6.87893 15.5559 8.60033 15.55 10.1147 15.0529C12.3862 14.3132 14.2851 12.4135 15.0245 10.1411C15.3084 9.27117 15.4031 8.67938 15.3972 7.6911C15.3972 6.33 15.1546 5.35355 14.5394 4.16406C13.0961 1.38267 10.1147 -0.244735 6.97358 0.0334044ZM8.72455 3.73206C10.1206 4.08121 11.3155 5.28254 11.6941 6.71466C11.8302 7.22951 11.8302 8.21187 11.6941 8.72673C11.3155 10.1766 10.1502 11.3365 8.69497 11.7212C8.19216 11.8514 7.25752 11.8514 6.73105 11.7271C5.92655 11.5318 5.00965 10.9578 4.52459 10.3423C4.19332 9.92805 3.82065 9.17648 3.69643 8.69714C3.57812 8.24146 3.57812 7.19992 3.69643 6.74425C3.82065 6.2649 4.19332 5.51333 4.52459 5.09908C4.97416 4.53097 5.86148 3.9451 6.57133 3.75573C7.23978 3.56636 8.03244 3.56044 8.72455 3.73206Z" fill="white"/>
<path d="M42.2719 0.0276003C38.0009 0.287986 34.3629 2.32373 32.9728 5.21756C32.2807 6.67335 32.2097 8.30667 32.7835 9.79797C33.8956 12.6859 37.4626 14.9287 41.633 15.3608C42.6386 15.4614 44.7564 15.4022 45.6437 15.2424C48.4239 14.7453 50.6008 13.6682 52.1684 12.0112C54.1028 9.96959 54.5287 7.46042 53.3515 5.07553C52.7126 3.79135 51.3994 2.48943 49.8614 1.63726C47.7082 0.447767 44.9575 -0.1381 42.2719 0.0276003ZM44.0524 3.63749C46.5606 3.84461 48.8085 4.85065 49.8259 6.22951C50.2459 6.7917 50.376 7.14677 50.376 7.72672C50.376 8.20015 50.3642 8.26525 50.1394 8.69725C48.9623 11.017 44.8037 12.3545 41.0237 11.6207C38.8291 11.2005 36.8888 10.0051 36.2381 8.68542C35.9897 8.17648 35.9305 7.7504 36.0488 7.27697C36.4925 5.47794 39.1781 3.89196 42.195 3.64341C43.0764 3.57239 43.2124 3.57239 44.0524 3.63749Z" fill="white"/>
<path d="M19.0058 0.423588C18.2664 0.642549 17.7399 1.33494 17.7399 2.09242C17.7399 2.31138 17.7813 2.61319 17.8346 2.76706C17.9588 3.13988 18.3255 3.53638 18.7337 3.73758L19.0709 3.90328L21.8334 3.93287L24.5959 3.96246L20.6326 9.19976C16.8289 14.2181 16.6633 14.443 16.6988 14.6383C16.7165 14.7507 16.7875 14.8987 16.8526 14.9637C16.9768 15.088 16.9886 15.088 23.4069 15.088C29.4525 15.088 29.8547 15.0821 30.1446 14.9815C30.535 14.8454 30.955 14.4785 31.1561 14.0879C31.2863 13.8334 31.3158 13.7092 31.3158 13.3127C31.3158 12.9103 31.2922 12.786 31.1502 12.5019C30.9728 12.1409 30.7125 11.8805 30.3221 11.6734C30.0736 11.5373 30.0559 11.5373 26.755 11.5077L23.4306 11.4781L26.3942 7.57235C31.6235 0.66622 31.3454 1.04496 31.3454 0.855591C31.3454 0.760905 31.2804 0.612959 31.2035 0.518273L31.0615 0.352573L25.1815 0.340738C20.0943 0.33482 19.2661 0.340738 19.0058 0.423588Z" fill="white"/>
<path d="M56.835 0.41207C56.7344 0.471249 56.6516 0.583688 56.6102 0.725717C56.5629 0.87958 56.551 2.83839 56.5629 7.30637L56.5806 13.6681L56.7522 14.0409C57.0657 14.7214 57.6276 15.0824 58.3848 15.0824C58.929 15.0824 59.284 14.9345 59.698 14.5202C60.189 14.029 60.1831 14.0764 60.2186 10.4547L60.2482 7.30045L61.1947 8.05201C63.5786 9.95164 64.2056 10.4487 64.9805 11.0642C65.436 11.4252 66.1932 12.0288 66.6664 12.4016C67.1397 12.7745 67.885 13.3662 68.3228 13.7154C70.1625 15.1712 70.1033 15.1298 70.2985 15.0943C70.3991 15.0706 70.547 14.9877 70.6298 14.9108L70.7777 14.7629V8.29465C70.7777 1.9803 70.7777 1.82644 70.6594 1.51279C70.5174 1.11629 70.1211 0.702044 69.7129 0.500838C69.3166 0.305549 68.6599 0.299631 68.2518 0.483085C67.8554 0.666537 67.4769 1.06895 67.3231 1.47136C67.2047 1.79685 67.1988 1.88561 67.1988 4.96881C67.1988 6.84477 67.1752 8.13486 67.1456 8.13486C67.116 8.13486 66.7847 7.88631 66.4121 7.5845C66.0335 7.28861 65.3236 6.7205 64.8327 6.32992C64.3358 5.93934 63.5017 5.27654 62.9752 4.86229C62.4546 4.44213 61.6146 3.77933 61.1118 3.38283C60.6149 2.98633 59.84 2.36496 59.3904 2.00989C57.1426 0.222699 57.1603 0.228617 56.835 0.41207Z" fill="white"/>
</svg>
